<svg class="icon" viewBox="0 0 1024 1024" xmlns="http://www.w3.org/2000/svg" width="200" height="200"><path d="M107.585 735.902a110.065 110.065 0 0 1 70.135 21.5 76.79 76.79 0 0 1 27.132 61.689 65.271 65.271 0 0 1-25.596 54.008 72.95 72.95 0 0 1 29.692 57.337 87.284 87.284 0 0 1-27.389 67.83 108.274 108.274 0 0 1-75.51 25.597 106.738 106.738 0 0 1-71.67-23.293 102.386 102.386 0 0 1-34.3-74.486v-14.59h69.623v13.31a37.371 37.371 0 0 0 10.75 27.9 36.603 36.603 0 0 0 25.597 8.448 39.419 39.419 0 0 0 27.645-8.96 25.597 25.597 0 0 0 8.19-19.964 25.597 25.597 0 0 0-7.934-20.734 43.258 43.258 0 0 0-27.9-6.91H74.31v-59.897h31.483a40.187 40.187 0 0 0 25.597-5.887 21.757 21.757 0 0 0 6.143-17.406 24.06 24.06 0 0 0-5.12-17.15 37.115 37.115 0 0 0-23.548-6.143 35.58 35.58 0 0 0-25.597 7.423 34.3 34.3 0 0 0-9.982 23.805v15.358H5.199v-15.102a94.451 94.451 0 0 1 32.763-68.343 102.386 102.386 0 0 1 69.88-24.06zm890.761 108.785v102.387H409.625V844.687zM106.817 367.823a102.386 102.386 0 0 1 70.647 25.596 84.725 84.725 0 0 1 27.388 65.528 102.386 102.386 0 0 1-28.156 69.878 335.827 335.827 0 0 1-55.289 43.259 236.512 236.512 0 0 0-25.596 18.685h109.041v65.015H13.39a17.15 17.15 0 0 1-9.983-3.583 15.614 15.614 0 0 1-3.328-10.495 111.857 111.857 0 0 1 28.669-76.79 359.888 359.888 0 0 1 61.175-49.145 212.196 212.196 0 0 0 32.252-25.596 45.818 45.818 0 0 0 13.31-30.716 27.644 27.644 0 0 0-6.399-20.478 35.067 35.067 0 0 0-23.549-6.143 26.876 26.876 0 0 0-24.06 10.495 65.783 65.783 0 0 0-9.983 37.627 14.59 14.59 0 0 1-3.84 9.215 20.733 20.733 0 0 1-10.494 3.839H14.158a16.382 16.382 0 0 1-8.96-5.12 15.614 15.614 0 0 1-3.839-10.238 113.137 113.137 0 0 1 28.668-78.325 99.57 99.57 0 0 1 76.79-32.508zm891.53 92.915v102.387H409.624V460.738zM146.491 0v287.962H75.077V94.195a142.829 142.829 0 0 1-51.193 20.222l-8.19 1.536v-69.88l4.863-2.047A307.159 307.159 0 0 0 59.72 27.644 334.803 334.803 0 0 0 96.323 0zm851.854 76.79v102.386h-588.72V76.79zm0 0" data-spm-anchor-id="a313x.7781069.0.i0"/></svg>