<svg class="icon" viewBox="0 0 1024 1024" xmlns="http://www.w3.org/2000/svg" width="200" height="200"><path d="M285.696 134.144q0 14.336-9.216 22.528t-22.528 8.192q-12.288 0-20.992-8.704t-8.704-24.064l-1.024-70.656q0-17.408 9.216-26.112t21.504-8.704q13.312 0 22.528 9.216t9.216 26.624v71.68zm640 191.488H81.92V219.136q0-30.72 17.408-50.176t48.128-19.456h709.632q37.888 0 53.248 18.944t15.36 48.64v108.544zm0 408.576q0 32.768-6.144 56.832t-20.48 39.936-38.4 23.552-59.904 7.68H207.872q-72.704 0-99.328-33.792t-26.624-102.4V397.312h843.776v336.896zm-405.504-133.12q-10.24 0-17.408 7.168t-7.168 17.408 7.168 17.408 17.408 7.168 17.408-7.168 7.168-17.408-7.168-17.408-17.408-7.168zm31.744-53.248h77.824q16.384 0 22.016 15.36t-13.824 34.816q-19.456 18.432-34.816 36.864t-25.6 43.008q-8.192 21.504-8.192 38.912t1.024 24.576q3.072 20.48 25.6 20.48 8.192 0 11.776-6.656t3.584-14.848q0-4.096.512-13.824t3.072-20.992 7.68-23.552 13.312-21.504q16.384-18.432 36.864-37.888t27.648-39.936q3.072-10.24 2.56-23.04t-5.632-23.552-14.848-18.432-23.04-8.704q-10.24-1.024-24.576-1.024h-30.72q-15.36 0-28.16.512t-18.944.512q-11.264 0-16.384 6.656t-6.144 11.776q0 6.144 4.608 13.312t12.8 7.168zm-195.584-4.096q5.12-2.048 12.288-2.048t14.336 2.56 13.312 8.192 9.216 14.848q3.072 14.336-4.608 27.648t-15.872 17.408q-9.216 5.12-8.192 14.336T385.024 640q6.144 4.096 13.312 8.192t12.288 18.432q1.024 6.144.512 14.848t-4.608 16.896-11.264 14.848-18.432 8.704q-21.504 4.096-33.792-6.144t-14.336-17.408q-3.072-8.192-10.24-10.752t-13.312-.512q-9.216 2.048-11.776 11.264t-.512 14.336 9.728 17.408 29.184 23.552q10.24 6.144 27.648 7.68t34.816-2.048 33.28-14.848 24.064-31.744q7.168-17.408 6.144-32.256t-5.632-25.6-10.24-16.896-6.656-8.192q-5.12-5.12-4.608-10.752t5.632-10.752q6.144-9.216 9.216-18.432t2.048-23.552q0-7.168-2.56-16.896t-9.728-18.432-18.944-15.872-31.232-10.24-34.304 1.536-25.6 12.288-16.896 16.384-8.192 12.8q-4.096 9.216-1.024 18.944t11.264 11.776 12.8-2.048 7.68-9.216q2.048-5.12 8.192-11.776t17.408-11.776zM783.36 133.12q0 14.336-8.704 23.04t-20.992 8.704q-13.312 0-22.016-8.192t-8.704-23.552V57.344q0-17.408 8.704-24.064t22.016-6.656q12.288 0 20.992 7.68t8.704 25.088v73.728z"/></svg>