<svg class="icon" viewBox="0 0 1024 1024" xmlns="http://www.w3.org/2000/svg" width="200" height="200"><path d="M447.125 359.342c219.788 0 398.055-59.401 398.055-153.098S666.913 53.146 447.125 53.146 49.07 112.548 49.07 206.244s151.36 153.098 398.055 153.098zm0-68.794c-94.78 0-183.305-11.156-247.865-32.636-56.55-18.809-77.841-36.618-77.841-51.668s21.292-31.515 77.841-50.324c64.621-21.48 153.085-33.98 247.865-33.98 94.774 0 183.305 12.5 247.863 33.98 56.551 18.809 80.36 35.275 80.36 50.324s-23.81 32.859-80.36 51.668c-64.619 21.48-153.09 32.636-247.863 32.636zm0 1.576" fill="#282828"/><path d="M79.311 174.742c14.642-.003 29.74 10.358 32.567 24.682.046.234-.553.621-.532.859l1.075 4.755c.016.18-.623.473-.623.653v187.176c-.238 37.555 12.244 35.728 84.784 56.931 3.88 1.134 5.38 1.823 9.392 2.918 5.841 1.595 8.671 5.482 8.671 13.855 0 13.18-.115 27.494-.498 40.941l-.2 3.389c-.398 3.787-2.713 10.474-15.073 7.07-20.333-4.57-52.628-11.521-76.234-19.39-6.429-2.144-10.84-.303-10.84 6.475v86.77c0 15.19 6.262 9.94 84.782 36.646 2.864.877 10.389 2 9.592 17.55v35.926c0 5.43.236 15.767-16.128 12.8-28.653-5.196-34.893-6.517-67.376-16.035-6.536-1.915-10.87-.35-10.87 6.46V800.27c0 15.189 27.708 38.583 84.782 57.566 65.159 21.678 154.505 40.6 250.164 40.6 95.652 0 163.195-8.964 226.238-36.186 39.826-17.196 28.763-12.512 44.012-20.485 20.508-10.723 33.648-18.797 39.323-23.21 6.03-4.69 30.288-23.678 35.889-28.853 6.992-6.461 18.342-6.46 30.975-2.42 22.077 7.06 24.617 28.408 22.822 37.379-2.645 13.214-14.372 28.08-33.041 44.412l-5.109 4.5c-61.473 53.71-190.96 97.281-361.11 97.281-170.305 0-311.1-40.5-372.517-95.35C62.51 865.038 50.812 848.03 49.27 839.49a8.138 8.138 0 0 1-.094-1.141l-.485-54.039V205.364c0-16.909 13.708-30.622 30.621-30.622zm698.155 30.622c-.027-15.863 14.887-29.117 30.684-30.551 15.657-1.422 34.34 9.242 37.342 24.625.045.226.095.602.115.833l.426 4.768c.016.18.029.474.029.654v183.253c-6.7 23.041-29.532 23.705-31.16 23.739-19.137.399-37.612-10.267-37.436-23.6v-183.72zm6.09 0" fill="#282828"/><path d="m266.668 659.458 61-8.354c4.774 36.681 21.889 53.85 49.067 52.599 25.448-1.172 39.035-12.77 40.629-33.467.794-14.39-5.949-23.266-25.103-31.107-14.995-6.139-34.705-11.195-52.67-14.33-48.623-10.41-74.531-49.045-72.936-89.706 4.774-43.91 37.11-84.11 96.882-87.352 63.013-1.593 105.675 26.735 116.024 77.745l-61.321 16.695c-12.793-25.075-25.95-32.85-48.993-32.294-23.157.559-32.995 15.167-34.588 31.09-1.593 14.33 14.306 26.138 46.667 34.731 28.04 7.447 51.761 18.61 62.154 25.142 27.215 17.107 35.078 38.275 35.877 67-2.388 51.01-36.976 91.639-103.98 90.572-73.195-1.166-95.972-39.932-108.71-98.964zm417.72 70.558 50.26 50.894-73.88 22.697-45.422-62.77c-73.362-12.002-117.943-56.645-121.13-133.993 3.98-86.958 48.26-132.4 132.77-136.376 80.53 4.775 127.093 50.054 129.213 136.376 1.22 49.67-16.02 103.268-71.81 123.233v-.061zm9.136-123.078c-1.702-56.562-32.29-77.748-68.908-77.748-35.691 0-67.653 22.003-70.17 77.81 1.7 55.745 33.127 75.046 70.17 75.046 38.646 0 67.206-17.662 68.908-75.045v-.063zM975.31 737.221H780.388V474.08h67.123v200.69h127.8v62.451zm0 0" fill="#282828"/></svg>