<svg class="icon" viewBox="0 0 1024 1024" xmlns="http://www.w3.org/2000/svg" width="200" height="200"><defs><style/></defs><path d="M231.495 109.568v22.175a66.737 66.737 0 0066.877 66.56h427.256a66.737 66.737 0 0066.913-66.56v-22.175h89.264a88.982 88.982 0 0189.23 88.735v709.985a88.982 88.982 0 01-89.265 88.735H142.23c-23.658 0-46.398-9.322-63.135-25.989a88.488 88.488 0 01-26.13-62.746V198.303a88.982 88.982 0 0189.265-88.735h89.265zm169.984 238.945a44.491 44.491 0 00-44.633 44.35 44.491 44.491 0 0044.633 44.385h359.106a44.491 44.491 0 0044.667-44.385 44.491 44.491 0 00-44.632-44.35H401.48zm-133.897 0c-15.96 0-30.685 8.475-38.665 22.175a44.138 44.138 0 000 44.385 44.668 44.668 0 0083.297-22.21 44.491 44.491 0 00-44.597-44.35zm0 177.47c-15.96 0-30.685 8.474-38.665 22.21a44.138 44.138 0 000 44.35 44.668 44.668 0 0083.297-22.175 44.491 44.491 0 00-44.632-44.385zm89.264 44.385a44.491 44.491 0 0044.633 44.385h359.106a44.491 44.491 0 0044.667-44.385 44.491 44.491 0 00-44.632-44.385H401.48a44.491 44.491 0 00-44.633 44.385zm-89.264 133.12a44.491 44.491 0 00-44.632 44.385 44.491 44.491 0 0044.632 44.35 44.491 44.491 0 0044.632-44.35 44.491 44.491 0 00-44.632-44.385zm133.897 0a44.491 44.491 0 00-44.633 44.385 44.491 44.491 0 0044.633 44.35h359.106a44.491 44.491 0 0044.667-44.35 44.491 44.491 0 00-44.632-44.385H401.48zm27.189-635.233A85.098 85.098 0 01512 0a85.098 85.098 0 0183.332 68.255h120.48a51.2 51.2 0 110 102.4H308.188a51.2 51.2 0 110-102.4h120.514z"/></svg>