<?xml version="1.0" standalone="no"?><!DOCTYPE svg PUBLIC "-//W3C//DTD SVG 1.1//EN" "http://www.w3.org/Graphics/SVG/1.1/DTD/svg11.dtd"><svg t="1618631203960" class="icon" viewBox="0 0 1024 1024" version="1.1" xmlns="http://www.w3.org/2000/svg" p-id="2931" data-darkreader-inline-fill="" xmlns:xlink="http://www.w3.org/1999/xlink" width="200" height="200"><defs><style type="text/css"></style></defs><path d="M867.2 32H160c-51.2 0-92.8 41.6-92.8 92.8v777.6c0 51.2 41.6 92.8 92.8 92.8h707.2c51.2 0 92.8-41.6 92.8-92.8V124.8C956.8 73.6 915.2 32 867.2 32z m32 867.2c0 16-16 32-32 32H160c-16 0-32-16-32-32V121.6c0-16 16-32 32-32h707.2c16 0 32 16 32 32v777.6z" p-id="2932"></path><path d="M787.2 272H236.8c-19.2 0-35.2 16-35.2 35.2 0 19.2 16 35.2 35.2 35.2h550.4c19.2 0 35.2-16 35.2-35.2 0-19.2-16-35.2-35.2-35.2zM684.8 480h-448c-19.2 0-35.2 16-35.2 35.2 0 19.2 16 35.2 35.2 35.2h448c19.2 0 35.2-16 35.2-35.2 0-22.4-16-35.2-35.2-35.2zM582.4 684.8H236.8c-19.2 0-35.2 16-35.2 35.2 0 19.2 16 35.2 35.2 35.2h345.6c19.2 0 35.2-16 35.2-35.2 0-19.2-16-35.2-35.2-35.2z" p-id="2933"></path></svg>