<svg class="icon" viewBox="0 0 1024 1024" xmlns="http://www.w3.org/2000/svg" width="200" height="200"><defs><style/></defs><path d="M742.4 755.456H564.77c-14.438 0-26.112 12.476-26.112 27.87v168.619h28.433L742.4 760.439v-4.983zm0-55.723V611.55c0-15.19 11.469-27.477 25.6-27.477s25.6 12.288 25.6 27.477v160.136c0 7.22-2.645 14.132-7.339 19.286L596.087 998.707a24.747 24.747 0 01-18.26 8.226H194.56c-65.024 0-117.76-56.627-117.76-126.48V143.53c0-69.837 52.736-126.464 117.76-126.464h481.28c65.024 0 117.76 56.627 117.76 126.48v48.93c0 15.19-11.469 27.478-25.6 27.478s-25.6-12.288-25.6-27.477V143.53c0-39.476-29.798-71.493-66.56-71.493H194.56c-36.762 0-66.56 32.017-66.56 71.51v736.887c0 39.475 29.798 71.492 66.56 71.492H486.4V783.31c0-46.148 35.09-83.576 78.37-83.576H742.4zM289.058 294.571h33.383l-15.582 153.275c-2.646 26.027-9.438 45.056-20.43 57.754-12.185 13.33-29.985 20.002-53.674 20.002-20.548 0-35.6-6.349-44.868-19.046-9.557-12.698-13.193-30.14-10.94-52.36l.734-7.305h33.4l-.717 6.997c-2.646 26.01 6.024 39.014 26.282 39.014 11.128 0 19.798-3.805 25.669-11.093 5.888-7.304 9.642-19.046 11.28-35.226l15.463-152.012zm144.128-4.438c23.979 0 42.257 5.393 54.545 16.504 13.073 11.742 19.473 30.14 18.944 54.903H473.6c-1.434-13.977-5.82-24.132-12.63-30.157-6.775-6.348-17.902-9.198-32.733-9.198-12.851 0-22.733 1.911-30.003 6.024-9.046 4.779-13.859 12.698-14.95 23.484-.974 9.523 2.798 17.459 11.912 23.176 4.027 2.526 15.24 7.288 33.4 13.96 26.709 9.507 43.622 17.136 51.097 22.205 16.503 11.741 23.705 27.938 21.572 48.879-2.048 20.309-10.837 36.488-26.3 48.23-15.428 11.435-36.3 17.46-62.276 17.46-25.105 0-44.254-5.394-57.14-16.197-15.769-13.312-23.04-34.27-21.537-63.147h33.11c.511 17.135 4.692 29.526 12.8 36.813 7.338 6.349 19.25 9.83 36.095 9.83 14.848 0 27.102-2.85 36.216-8.243 9.147-5.717 14.455-13.005 15.428-22.528 1.212-12.066-4.37-21.59-16.214-28.57-3.771-2.218-16.384-7.287-38.16-14.916-24.201-8.874-39.254-15.223-44.869-19.029-14.626-10.479-20.787-25.702-18.74-45.705 2.032-19.985 11.06-35.84 27.632-47.274 15.394-11.094 33.928-16.504 55.893-16.504zm207.224 0c31.112 0 54.528 11.094 70.212 33.622 14.95 21.282 20.65 49.527 17.1 84.428-3.55 34.902-14.95 62.823-34.235 84.088-20.241 22.22-45.91 33.331-77.005 33.331-31.403 0-54.784-11.435-70.212-33.638-14.933-21.59-20.36-49.51-16.88-83.798 3.517-34.577 14.627-62.498 33.964-84.07 19.985-22.87 45.653-33.963 77.039-33.963zm-3.243 32.683c-21.129 0-38.195 7.936-51.507 23.808-12.68 15.223-20.173 35.533-22.818 61.56-2.612 25.702.75 46.011 10.325 61.252 9.847 15.53 25.583 23.466 46.694 23.466 21.129 0 38.161-7.611 51.098-22.528 12.63-14.916 20.446-35.532 23.16-62.19 2.713-26.659-.871-47.617-10.445-62.84-9.865-15.223-25.396-22.528-46.507-22.528zm131.84-28.245h33.382L886.511 458h1.143l16.606-163.43h33.673l-23.04 226.577h-32.53l-85.008-165.65h-1.144l-16.845 165.65h-33.382l23.04-226.577z"/></svg>